<?xml version="1.0" encoding="utf-8"?>
<!-- Generator: Adobe Illustrator 19.0.0, SVG Export Plug-In . SVG Version: 6.00 Build 0)  -->
<svg version="1.1" id="Capa_1" xmlns="http://www.w3.org/2000/svg" xmlns:xlink="http://www.w3.org/1999/xlink" x="0px" y="0px"
	 viewBox="612.8 -27 182.8 60" style="enable-background:new 612.8 -27 182.8 60;" xml:space="preserve">
<style type="text/css">
	.st0{fill:#FFFFFF;}
	.st1{font-family:'DejaVuSansCondensed-Bold';}
	.st2{font-size:39.4721px;}
</style>
<g>
	<path class="st0" d="M713.3,25c-0.1-0.3-0.2-0.5-0.3-0.7c-1.8-3.2-5.1-7-10-11.6l-0.1-0.1l-0.1-0.1l-0.1-0.1h-0.1
		c-2.2-2.1-3.7-3.6-4.3-4.3c-1.1-1.4-1.3-2.8-0.7-4.3c0.4-1.1,2-3.4,4.7-6.9c1.4-1.9,2.6-3.3,3.4-4.5c6.1-8.1,8.7-13.2,7.9-15.5
		l-0.3-0.5c-0.2-0.3-0.8-0.6-1.6-0.9c-0.9-0.3-2-0.3-3.4-0.1l-15.2,0.1c-0.2-0.1-0.6-0.1-1.1,0c-0.5,0.1-0.7,0.2-0.7,0.2l-0.3,0.1
		l-0.2,0.2c-0.2,0.1-0.4,0.3-0.6,0.6c-0.2,0.3-0.4,0.6-0.5,0.9c-1.6,4.2-3.5,8.2-5.6,11.8c-1.3,2.2-2.5,4.1-3.6,5.7
		c-1.1,1.6-2,2.8-2.7,3.5c-0.7,0.8-1.4,1.4-2,1.8c-0.6,0.5-1.1,0.6-1.4,0.6c-0.3-0.1-0.6-0.1-0.9-0.2c-0.5-0.3-0.9-0.7-1.2-1.3
		c-0.3-0.5-0.5-1.2-0.6-2.1c-0.1-0.8-0.2-1.5-0.2-2.1c0-0.6,0-1.4,0-2.5c0-1.1,0.1-1.8,0.1-2.2c0-1.3,0-2.8,0.1-4.3
		c0.1-1.6,0.1-2.8,0.1-3.7c0-0.9,0.1-1.9,0.1-2.9s-0.1-1.8-0.2-2.4c-0.1-0.6-0.3-1.1-0.6-1.7c-0.2-0.5-0.6-1-1.1-1.3
		c-0.5-0.3-1.1-0.5-1.8-0.7c-1.9-0.4-4.2-0.6-7.1-0.7c-6.5-0.1-10.7,0.4-12.6,1.3c-0.7,0.4-1.4,0.9-2,1.6c-0.6,0.8-0.7,1.2-0.3,1.3
		c2.1,0.3,3.6,1.1,4.5,2.3l0.3,0.6c0.2,0.5,0.5,1.3,0.7,2.4c0.2,1.2,0.4,2.4,0.5,3.8c0.2,2.6,0.2,4.8,0,6.6
		c-0.2,1.8-0.3,3.2-0.5,4.3c-0.2,1-0.4,1.8-0.7,2.5c-0.3,0.6-0.5,1-0.6,1.2c-0.1,0.1-0.2,0.2-0.3,0.3c-0.5,0.2-0.9,0.3-1.4,0.3
		c-0.5,0-1.1-0.2-1.8-0.7c-0.7-0.5-1.4-1.2-2.2-2c-0.8-0.9-1.6-2.1-2.6-3.6c-0.9-1.5-1.9-3.4-2.9-5.5l-0.8-1.5
		c-0.5-1-1.2-2.4-2.2-4.3c-0.9-1.9-1.7-3.7-2.4-5.4c-0.3-0.7-0.7-1.3-1.3-1.7l-0.3-0.2c-0.2-0.1-0.5-0.3-0.8-0.4
		c-0.4-0.2-0.8-0.3-1.2-0.3l-14.4,0.1c-1.5,0-2.5,0.3-3,1l-0.2,0.3c-0.1,0.2-0.2,0.5-0.2,0.8c0,0.4,0.1,0.9,0.3,1.4
		c2.1,4.9,4.4,9.7,6.9,14.3s4.6,8.3,6.4,11.1c1.8,2.8,3.7,5.5,5.6,7.9c1.9,2.5,3.1,4.1,3.8,4.8c0.6,0.7,1.1,1.2,1.4,1.6l1.3,1.3
		c0.8,0.8,2.1,1.9,3.7,3c1.6,1.2,3.4,2.3,5.4,3.5c2,1.1,4.3,2.1,6.9,2.8c2.6,0.7,5.2,1,7.7,0.9h6.1c1.2-0.1,2.2-0.5,2.8-1.2l0.2-0.3
		c0.1-0.2,0.3-0.5,0.4-1c0.1-0.4,0.2-0.9,0.2-1.4c0-1.5,0.1-2.9,0.3-4.1c0.3-1.2,0.6-2.1,0.9-2.7c0.3-0.6,0.7-1.1,1.1-1.6
		c0.4-0.4,0.7-0.7,0.9-0.8c0.2-0.1,0.3-0.1,0.4-0.2c0.8-0.3,1.8,0,3,0.8c1.1,0.8,2.2,1.8,3.2,3.1c1,1.2,2.2,2.6,3.6,4.1
		c1.4,1.5,2.6,2.6,3.7,3.4l1.1,0.6c0.7,0.4,1.6,0.8,2.7,1.2c1.1,0.4,2.1,0.4,2.9,0.3l13.5-0.2c1.3,0,2.4-0.2,3.1-0.7
		c0.7-0.4,1.2-0.9,1.3-1.4c0.1-0.5,0.1-1.1,0-1.8C713.5,25.8,713.4,25.3,713.3,25z"/>
</g>
<text transform="matrix(1 0 0 1 724.0952 16.5922)" class="st0 st1 st2">UID</text>
</svg>
